<svg width="26" height="24" viewBox="0 0 26 24" fill="none" xmlns="http://www.w3.org/2000/svg">
<path d="M23.3333 3.71L10.0217 17.0333L5.075 12.0867L6.72 10.4417L10.0217 13.7433L21.6883 2.07667L23.3333 3.71ZM11.6667 21C6.52167 21 2.33333 16.8117 2.33333 11.6667C2.33333 6.52167 6.52167 2.33333 11.6667 2.33333C13.4983 2.33333 15.2133 2.87 16.66 3.79167L18.3517 2.1C16.45 0.781667 14.1517 0 11.6667 0C5.22667 0 0 5.22667 0 11.6667C0 18.1067 5.22667 23.3333 11.6667 23.3333C13.685 23.3333 15.5867 22.82 17.2433 21.91L15.4933 20.16C14.3267 20.6967 13.0317 21 11.6667 21ZM19.8333 15.1667H16.3333V17.5H19.8333V21H22.1667V17.5H25.6667V15.1667H22.1667V11.6667H19.8333V15.1667Z" fill="white"/>
</svg>
